<?xml version="1.0" encoding="UTF-8"?>
<!DOCTYPE svg PUBLIC "-//W3C//DTD SVG 1.1//EN" "http://www.w3.org/Graphics/SVG/1.1/DTD/svg11.dtd">
<!-- Creator: CorelDRAW 2020 (64 Bit) -->
<svg xmlns="http://www.w3.org/2000/svg" xml:space="preserve" width="211.13mm" height="303.597mm" version="1.1" style="shape-rendering:geometricPrecision; text-rendering:geometricPrecision; image-rendering:optimizeQuality; fill-rule:evenodd; clip-rule:evenodd"
viewBox="0 0 25761.99 37044.83"
 xmlns:xlink="http://www.w3.org/1999/xlink"
 xmlns:xodm="http://www.corel.com/coreldraw/odm/2003">
 <defs>
  <style type="text/css">
   <![CDATA[
    .fil0 {fill:#1A1A1A}
    .fil1 {fill:#FF9500}
   ]]>
  </style>
 </defs>
 <g id="Camada_x0020_1">
  <metadata id="CorelCorpID_0Corel-Layer"/>
  <g id="_1860567230752">
   <path class="fil0" d="M24674.14 29283.75l1087.84 765.05c-1869.4,4125.92 -6023.48,6996.03 -10847.94,6996.03 -640.45,0 -1269.07,-50.56 -1882.11,-147.96l1670.96 -478.99 207.57 -3164.38 4311.4 -1482.88 2262.33 -2492.72 3189.94 5.84zm-12940.6 -4142.29l-1005.36 -1614.18 5703.49 -2157.07 7166.87 -66.39 -6979.28 2287.54 -4165.04 633.45 163.2 916.64 2739.92 0.01 244.11 1674.34 -3705.36 2503.92 -3142.45 452.32 -770.8 1596.17 1330.28 3355.53 48.49 949.51c-3776.98,-1995.39 -6351,-5962.97 -6351,-10531.83l8722.91 0.04z"/>
   <polygon class="fil1" points="12475.12,22874.29 12593.75,22053.82 12109.33,21610 -0,14699.22 12771.69,20017.47 13305.52,17368.23 13157.26,15460.38 10867.85,13391.69 5100.88,6632.92 11417.95,12168.67 13048.58,12850.72 11288.83,10494.07 10460.57,7471.17 9598.73,1087.37 10577.37,3993.61 10251.16,0 11773.47,4843.75 11561.15,3947.5 10844.28,1482.77 13398.42,9293.83 13671.49,12336.74 14007.64,16804.86 16851.55,14753.44 20433.04,9450.26 18535.15,13635.98 15648.66,17437.5 14946.81,18178.9 14165.89,18880.74 13602.44,19889.03 13523.35,20788.58 13661.77,21352.05 13305.9,22627.24 "/>
  </g>
 </g>
</svg>
